<svg aria-hidden="true" style="width:0;height:0;position:absolute;overflow:hidden" xmlns="http://www.w3.org/2000/svg"><defs><symbol id="arrow" viewBox="0 0 34 32"><path d="M21.943 15.703a.91.91 0 0 1-.001 1.28l-9.211 9.211a.91.91 0 0 1-1.28-.001l-.434-.434a.914.914 0 0 1 0-1.28l8.137-8.137-8.137-8.114a.914.914 0 0 1 0-1.28l.434-.434a.914.914 0 0 1 1.28 0l9.189 9.211z"/></symbol><symbol id="cross" viewBox="0 0 30 32"><path d="m16.219 14.826 4.928-4.923a1.013 1.013 0 0 0-1.431-1.428l.001-.001-4.927 4.874-4.959-4.955a1.014 1.014 0 0 0-1.427 1.429l-.001-.002 4.948 5.006-4.847 4.782a1.013 1.013 0 1 0 1.429 1.43l.001-.001 4.836-4.832 4.806 4.801a1.014 1.014 0 0 0 1.427-1.429l.001.002-4.785-4.751z"/></symbol><symbol id="arrow-right" viewBox="0 0 18 32"><path d="M17.657 15.035 2.795.875c-.239-.228-.563-.368-.92-.368s-.681.14-.921.369h.001L.939.892A1.224 1.224 0 0 0 .938 2.67l13.995 13.333L.938 29.331a1.224 1.224 0 0 0-.001 1.779h.001l.016.016c.239.228.563.368.92.368s.681-.14.921-.369h-.001l14.862-14.16c.255-.243.413-.586.413-.965s-.158-.722-.413-.965z"/></symbol><symbol id="arrow-left" viewBox="0 0 18 32"><path d="m.484 16.965 14.862 14.16c.239.228.563.368.92.368s.681-.14.921-.369h-.001l.016-.016a1.223 1.223 0 0 0 0-1.779h-.001L3.206 15.996 17.201 2.669a1.223 1.223 0 0 0 0-1.779H17.2l-.016-.016c-.239-.228-.563-.368-.92-.368s-.681.14-.921.369h.001L.482 15.035c-.255.243-.413.586-.413.965s.158.722.413.965h.001z"/></symbol><symbol id="star" viewBox="0 0 34 32"><path fill="#ffe550" style="fill:var(--color1,#ffe550)" d="M15.427 1.047c.584-1.385 2.577-1.385 3.161 0l3.45 8.166c.246.582.804.98 1.445 1.032l8.956.706c1.517.12 2.133 1.983.976 2.959l-6.823 5.755a1.669 1.669 0 0 0-.55 1.682l-.002-.011 2.085 8.604c.352 1.457-1.259 2.609-2.557 1.829L17.9 27.157a1.732 1.732 0 0 0-1.792.004l.008-.004-7.668 4.612c-1.301.78-2.909-.372-2.557-1.829l2.085-8.604a1.665 1.665 0 0 0-.55-1.669l-.003-.002L.6 13.912c-1.157-.976-.54-2.841.976-2.961l8.956-.704a1.711 1.711 0 0 0 1.44-1.021l.004-.011 3.45-8.168z"/></symbol><symbol id="burger-menu" viewBox="0 0 43 32"><path fill="#7eb101" style="fill:var(--color2,#7eb101)" d="M.592 3.556c0-1.146.929-2.075 2.075-2.075H40a2.075 2.075 0 1 1 0 4.15H2.667A2.075 2.075 0 0 1 .592 3.556zm0 12.51a2.075 2.075 0 0 1 2.075-2.073H40a2.076 2.076 0 0 1 .003 4.148H2.667a2.075 2.075 0 0 1-2.075-2.075zm2.075 10.437a2.076 2.076 0 0 0-.003 4.148H40l.061.001a2.075 2.075 0 1 0 0-4.15l-.064.001H40 2.667z"/></symbol><symbol id="touch" viewBox="0 0 32 32"><path fill="#7eb101" style="fill:var(--color2,#7eb101)" d="M15.504 1.333c2.023 0 3.751.706 5.185 2.118 1.433 1.411 2.151 3.129 2.151 5.151 0 1.156-.25 2.245-.75 3.268a7.426 7.426 0 0 1-2.101 2.588l-.017.012h-1.133v-1.667a5.17 5.17 0 0 0 1.47-1.836l.013-.031a5.35 5.35 0 0 0 .517-2.311v-.024.001c0-1.467-.523-2.712-1.567-3.734s-2.301-1.534-3.768-1.534c-1.466 0-2.723.511-3.767 1.534-1.045 1.022-1.567 2.267-1.567 3.734 0 .822.172 1.6.517 2.334a5.19 5.19 0 0 0 1.473 1.859l.011.008v2.401a7.307 7.307 0 0 1-2.916-2.702l-.018-.032A7.27 7.27 0 0 1 8.17 8.657v-.058.003c0-2.022.717-3.74 2.151-5.151s3.162-2.118 5.184-2.118zM14.237 29.34a2.66 2.66 0 0 1-1.067-.216 2.78 2.78 0 0 1-.867-.584l-6.868-6.868 1.866-1.934c.311-.31.661-.55 1.05-.716a1.819 1.819 0 0 1 1.23-.081l-.013-.003 2.601.6V8.669c0-.934.322-1.723.967-2.368s1.433-.967 2.367-.967c.934 0 1.723.323 2.368.967s.967 1.433.967 2.368v5.734h.866c.111 0 .211.022.3.067.09.044.19.088.3.133l4.935 2.401c.533.244.927.639 1.183 1.183s.328 1.106.217 1.684l-1.2 7.268a2.518 2.518 0 0 1-.929 1.58l-.005.004a2.675 2.675 0 0 1-1.714.616h-8.554zm-.267-2h9.369l1.433-8.302-6.101-3.034h-1.833V8.669c0-.4-.123-.723-.367-.967s-.567-.367-.967-.367-.722.123-.966.367c-.245.244-.367.567-.367.967v13.303l-5.134-1.1-.767.766 5.701 5.701zm9.37 0z"/></symbol><symbol id="rocket" viewBox="0 0 32 32"><path fill="#7eb101" style="fill:var(--color2,#7eb101)" d="m7.235 13.636 3.535 1.5c.4-.8.827-1.588 1.283-2.367s.939-1.522 1.45-2.235l-2.634-.533-3.635 3.634zm5.135 2.701 4.434 4.435a25.956 25.956 0 0 0 3.664-2.028l-.096.06c1.11-.733 2.011-1.444 2.701-2.134 1.8-1.8 3.123-3.646 3.967-5.535.845-1.889 1.3-4.023 1.367-6.402-2.379.067-4.512.523-6.402 1.367s-3.734 2.168-5.534 3.968c-.69.689-1.4 1.589-2.135 2.701a25.418 25.418 0 0 0-1.899 3.405l-.067.162zm7.635-3.201c-.444-.444-.667-.994-.667-1.65 0-.655.223-1.205.667-1.65.444-.444.994-.666 1.65-.666s1.206.222 1.65.666c.444.445.667.995.667 1.65 0 .656-.223 1.206-.667 1.65s-.994.667-1.65.667-1.206-.222-1.65-.667zm-.5 12.77 3.634-3.634-.533-2.635c-.711.512-1.456.995-2.234 1.45-.778.456-1.567.884-2.368 1.284l1.5 3.534zM30.374 2.768c.2 3.023-.178 5.778-1.134 8.268-.955 2.491-2.534 4.835-4.734 7.036l-.067.066-.066.067.733 3.668c.067.333.05.655-.05.966s-.272.59-.517.834l-5.701 5.734-2.834-6.602-5.668-5.668-6.602-2.834 5.735-5.701c.244-.244.522-.417.833-.517s.633-.116.967-.05l3.667.734a.247.247 0 0 1 .066-.049l.001-.001a.26.26 0 0 0 .067-.05c2.201-2.201 4.545-3.785 7.035-4.751 2.49-.967 5.245-1.35 8.269-1.15zM5.968 21.172c.777-.778 1.727-1.173 2.851-1.184 1.122-.01 2.072.373 2.851 1.15.777.778 1.16 1.728 1.15 2.851-.011 1.123-.406 2.073-1.184 2.851-.577.578-1.472 1.056-2.684 1.434s-3.029.733-5.451 1.066c.333-2.423.683-4.245 1.05-5.467s.839-2.124 1.417-2.701zm1.401 1.434c-.311.333-.59.856-.834 1.567s-.455 1.622-.633 2.734c1.111-.178 2.022-.389 2.734-.633.711-.245 1.234-.523 1.567-.834.422-.377.639-.85.65-1.416l.001-.061c0-.555-.223-1.058-.584-1.424a2.022 2.022 0 0 0-1.424-.584l-.064.001h.003a1.87 1.87 0 0 0-1.414.648l-.002.002z"/></symbol><symbol id="logo" viewBox="0 0 41 32"><path fill="#ffe550" style="fill:var(--color1,#ffe550)" d="M14.143 6.46c1.01-1.982 3.836-1.982 4.846 0l1.28 2.51a2.729 2.729 0 0 0 1.98 1.45l.016.002 2.772.442c2.196.35 3.07 3.049 1.497 4.625l-1.978 1.983a2.725 2.725 0 0 0-.763 2.372l-.002-.016.437 2.773c.346 2.2-1.94 3.868-3.92 2.858l-2.511-1.278c-.358-.186-.783-.296-1.232-.296s-.874.109-1.247.303l.015-.007-2.511 1.278c-1.98 1.009-4.267-.658-3.92-2.858l.437-2.773a2.725 2.725 0 0 0-.765-2.356l-1.978-1.983c-1.572-1.576-.698-4.276 1.497-4.625l2.772-.441a2.73 2.73 0 0 0 1.989-1.438l.007-.015 1.28-2.51z"/><path fill="#2c2c2c" style="fill:var(--color3,#2c2c2c)" d="m1.116 20.362-.021.005a76.868 76.868 0 0 0-.013 1.932c0 .157-.004.285-.01.384l.001.336c0 .104-.007.207-.021.308l.001-.012-.018.206c-.014.13-.042.201-.084.211-.092.022-.235-.049-.431-.212-.197-.17-.31-.319-.34-.447s-.038-1.06-.023-2.798c.021-1.74-.026-2.884-.14-3.433a.412.412 0 0 1 .014-.274l-.001.003c.036-.166.219-.321.55-.467.338-.147.843-.3 1.514-.459.678-.16 1.216-.25 1.614-.27.405-.021.623.032.652.16.021.085-.025.159-.137.223s-.211.117-.298.16c.121-.039.006.008-.109.054l-.239.085c-.145.049-.279.096-.403.14-.126.037-.288.09-.488.16-.193.068-.372.133-.536.194-.166.054-.39.133-.671.237s-.463.17-.546.197c.012.02.023.05.033.093.079.332.122 1.13.129 2.392a10.72 10.72 0 0 0 1.402-.366c.498-.162.804-.257.917-.284.269-.063.416-.039.443.074.052.22-.212.476-.791.77a8.607 8.607 0 0 1-1.95.697zm6.917-1.951a2.018 2.018 0 0 0-.282-.66l.005.008c-.13-.201-.281-.334-.452-.398-.455.25-.786.729-.992 1.435-.201.698-.236 1.319-.108 1.865s.343.854.644.924c.485-.219.834-.668 1.046-1.346.218-.687.265-1.297.139-1.828zm-2.764.755c.117-.611.33-1.14.642-1.588.318-.457.684-.734 1.102-.833.423-.1.819-.003 1.187.291.366.287.61.689.732 1.206.121.51.121 1.063.001 1.66a3.783 3.783 0 0 1-.72 1.58l.006-.009c-.349.449-.767.731-1.254.846-.361.086-.7-.01-1.019-.286s-.538-.669-.658-1.179c-.123-.517-.129-1.08-.019-1.689zm7.564-1.892a2.018 2.018 0 0 0-.282-.66l.005.008c-.129-.201-.281-.334-.452-.398-.455.25-.786.728-.992 1.434-.201.698-.236 1.32-.107 1.865.129.546.343.854.643.925.486-.22.834-.668 1.047-1.347.218-.687.265-1.296.138-1.828zm-2.763.755a4.1 4.1 0 0 1 .642-1.588c.318-.457.684-.734 1.102-.833.423-.1.82-.004 1.188.291.366.287.61.689.732 1.206.121.51.121 1.063.001 1.66a3.78 3.78 0 0 1-.72 1.579l.006-.009c-.349.449-.767.731-1.254.847-.361.085-.7-.01-1.018-.286s-.538-.669-.659-1.178c-.122-.517-.129-1.08-.019-1.689zm7.769-6.987c.113-.027.276.047.489.221.218.165.349.34.392.524s.079.729.107 1.634c.026.898.031 1.836.015 2.812-.02 2.188-.111 3.301-.273 3.34-.098.023-.223-.011-.371-.103-.143-.101-.226-.197-.247-.289s-.041-.282-.057-.57c-.524.872-1.045 1.369-1.561 1.491-.311.074-.626-.001-.948-.225-.314-.225-.508-.489-.579-.794-.105-.439-.111-.986-.02-1.644a5.612 5.612 0 0 1 .651-1.929l-.015.028c.327-.601.742-.961 1.243-1.079.502-.119.923.099 1.263.654.006-1.586-.077-2.818-.247-3.698-.05-.212.002-.337.158-.374zm.068 5.491c-.091-.382-.234-.689-.431-.919-.188-.232-.375-.326-.559-.282-.303.072-.57.333-.799.783a4.554 4.554 0 0 0-.454 1.452l-.003.024c-.07.525-.063.964.021 1.318a.398.398 0 0 0 .208.275l.002.001a.493.493 0 0 0 .359.038l-.004.001c.276-.065.599-.351.972-.858a3.581 3.581 0 0 0 .696-1.646l.002-.135-.012-.052zm6.764-.637c.137.581-.009 1.131-.438 1.652a3.021 3.021 0 0 1-1.663 1.01c-.671.159-1.266.117-1.786-.127-.522-.25-.819-.532-.892-.843-.051-.212-.012-.334.115-.364.113-.027.375.09.788.352.156.09.352.163.589.219.244.055.486.054.726-.004a2.37 2.37 0 0 0 1.223-.693c.329-.347.457-.669.387-.966-.045-.191-.23-.406-.554-.643a7.357 7.357 0 0 0-1.004-.619l-.042-.02a8.232 8.232 0 0 1-1.061-.677l.021.015c-.326-.244-.511-.455-.553-.632a1.669 1.669 0 0 1-.027-.596l-.001.009c.024-.215.068-.378.13-.49.203-.37.564-.751 1.083-1.143.526-.394.987-.638 1.383-.731a.738.738 0 0 1 .57.081l-.003-.002c.174.101.278.226.313.374.017.071-.044.145-.182.223s-.351.188-.638.33a5.125 5.125 0 0 0-.757.433l.017-.011c-.738.505-1.074.901-1.005 1.191.037.156.553.494 1.548 1.013.414.221.77.474 1.091.767L24.045 15c.346.3.555.598.625.895zm2.433.535c.032.135.126.183.281.147.268-.064.575-.215.922-.454.351-.247.548-.377.591-.386.127-.03.207.022.239.156.048.206-.108.493-.468.862-.353.368-.703.593-1.049.674-.339.08-.644.055-.913-.075-.271-.138-.43-.306-.477-.505a2.988 2.988 0 0 1-.051-.783c.011-.332.035-.767.071-1.307.042-.548.07-1 .082-1.354-.314.156-.527.248-.64.274s-.239-.003-.379-.09c-.134-.095-.214-.196-.239-.302-.04-.17.381-.442 1.262-.815a7.711 7.711 0 0 0-.178-1.606c-.05-.212-.005-.335.137-.369.12-.028.287.015.5.129.212.106.34.255.385.447s.065.542.058 1.052c.394-.131.711-.225.951-.281.425-.101.658-.058.702.126.025.106-.071.222-.287.348-.209.124-.663.348-1.363.67-.016.594-.052 1.28-.107 2.055-.057.769-.067 1.231-.03 1.386zm4.735-5.562c.318-.075.649.018.995.281.343.255.546.513.608.775.06.255.034.538-.079.849.11.086.174.167.193.246.047.198.081.549.103 1.052.03.502.051.829.065.983.021.152.036.276.043.371.006.089.009.177.007.268.014.183-.029.287-.128.311-.127.03-.258-.055-.396-.254a3.191 3.191 0 0 1-.343-.838c-.44.949-.928 1.487-1.465 1.614-.325.077-.679.015-1.062-.186-.378-.209-.602-.463-.672-.761-.1-.425-.069-.986.095-1.682.173-.744.452-1.4.826-1.99l-.015.026c.379-.606.788-.96 1.225-1.065zm.929 1.754c-.156-.658-.364-.957-.626-.895-.275.065-.55.34-.823.823a5.777 5.777 0 0 0-.61 1.508l-.009.041c-.137.556-.171.979-.103 1.27a.373.373 0 0 0 .217.261l.002.001a.6.6 0 0 0 .374.023c.332-.079.654-.39.965-.935a3.83 3.83 0 0 0 .48-1.852c-.004-.111.041-.189.135-.234l-.002-.01z"/><path fill="#bbf330" style="fill:var(--color4,#bbf330)" d="M30.759 19.978a.913.913 0 0 0-.641.602c-1.906 5.649-7.244 9.719-13.535 9.719-3.815 0-7.28-1.496-9.841-3.934a.91.91 0 0 0-.852-.231l.006-.001c-.639.158-.88.935-.406 1.392a15.864 15.864 0 0 0 11.072 4.481h.021-.001c7.078 0 13.081-4.606 15.182-10.986.206-.626-.368-1.199-1.006-1.041zM1.866 14.155a.908.908 0 0 0 .664-.719l.001-.005C3.742 6.766 9.57 1.711 16.582 1.711a14.25 14.25 0 0 1 11.232 5.465.903.903 0 0 0 .923.328c.583-.145.847-.825.478-1.301C26.291 2.433 21.72.005 16.581.005 8.7.005 2.151 5.716.839 13.23c-.103.593.445 1.07 1.028.926zm38.749-8.818c-3.777 7.241-5.435 2.465-10.753 5.27.532-8.405 6.163-3.291 10.753-5.27z"/></symbol><symbol id="Ellipse-big" viewBox="0 0 32 32"><path fill="#fefefe" style="fill:var(--color1,#fefefe);stroke:var(--color2,#ffe550)" stroke="#ffe550" stroke-width="1.435" d="M31.283 16c0 8.44-6.842 15.283-15.283 15.283S.717 24.441.717 16C.717 7.56 7.559.717 16 .717S31.283 7.559 31.283 16z"/></symbol><symbol id="Ellipse-small" viewBox="0 0 32 32"><path fill="#fff" style="fill:var(--color3,#fff);stroke:var(--color2,#ffe550)" stroke="#ffe550" stroke-width="1.4" d="M31.3 16c0 8.45-6.85 15.3-15.3 15.3S.7 24.45.7 16C.7 7.55 7.55.7 16 .7S31.3 7.55 31.3 16z"/></symbol><symbol id="customers-480-bg" viewBox="0 0 20 32"><path fill="#ffe550" style="fill:var(--color1,#ffe550)" d="M0 0h19.974v32C14.67 28.925 5.304 28.925 0 32V0z"/></symbol><symbol id="offerings-480-bg" viewBox="0 0 15 32"><path fill="#ffe550" style="fill:var(--color1,#ffe550)" d="M0 3.404c3.275-4.539 11.354-4.539 14.629 0V32H0V3.404z"/></symbol><symbol id="offerings-desk-bg" viewBox="0 0 50 32"><path fill="#ffe550" style="fill:var(--color1,#ffe550)" d="M0 6.183C17.961-4.521 39.456 17.858 49.709 0v32H0V6.183z"/></symbol><symbol id="customers-desk-bg" viewBox="0 0 63 32"><path fill="#ffe550" style="fill:var(--color1,#ffe550)" d="M0 29.091c22.677-11.646 50.275 17.005 63.308-7.022V0H0v29.091z"/></symbol><symbol id="customers-tablet-bg" viewBox="0 0 45 32"><path fill="#ffe550" style="fill:var(--color1,#ffe550)" d="M0 30.417c16.182-6.339 35.876 9.255 45.176-3.822V0H0v30.417z"/></symbol><symbol id="offerings-tablet-bg" viewBox="0 0 22 32"><path fill="#ffe550" style="fill:var(--color1,#ffe550)" d="M0 3.705C9.358-1.614 16.83 9.614 21.558 0v32H0V3.705z"/></symbol><symbol id="offerings-phone-bg" viewBox="0 0 10 32"><path fill="#ffe550" style="fill:var(--color1,#ffe550)" d="M0 1.829c2.59-2.438 7.163-2.438 9.752 0V32H0V1.829z"/></symbol><symbol id="customers-phone-bg" viewBox="0 0 13 32"><path fill="#ffe550" style="fill:var(--color1,#ffe550)" d="M0 0h13.316v32C9.78 30.34 3.536 30.34 0 32V0z"/></symbol><symbol id="all-stars" viewBox="0 0 202 32"><path fill="#ffe550" style="fill:var(--color1,#ffe550)" d="M15.42 1.038c.584-1.384 2.576-1.384 3.16 0L22.028 9.2c.246.582.804.98 1.444 1.032l8.952.706c1.516.12 2.132 1.982.976 2.958l-6.82 5.752a1.666 1.666 0 0 0-.55 1.682l-.002-.011 2.084 8.6c.352 1.456-1.258 2.608-2.556 1.828l-7.664-4.61a1.734 1.734 0 0 0-1.792.004l.008-.004-7.664 4.61c-1.3.78-2.908-.372-2.556-1.828l2.084-8.6a1.663 1.663 0 0 0-.55-1.667l-.003-.002-6.82-5.75c-1.156-.976-.54-2.84.976-2.96l8.952-.704a1.714 1.714 0 0 0 1.44-1.021l.004-.011 3.448-8.164zm42 0c.584-1.384 2.576-1.384 3.16 0L64.028 9.2c.246.582.804.98 1.444 1.032l8.952.706c1.516.12 2.132 1.982.976 2.958l-6.82 5.752a1.666 1.666 0 0 0-.55 1.682l-.002-.011 2.084 8.6c.352 1.456-1.258 2.608-2.556 1.828l-7.664-4.61a1.734 1.734 0 0 0-1.792.004l.008-.004-7.664 4.61c-1.3.78-2.908-.372-2.556-1.828l2.084-8.6a1.663 1.663 0 0 0-.55-1.668l-.003-.002-6.82-5.75c-1.156-.976-.54-2.84.976-2.96l8.952-.704a1.714 1.714 0 0 0 1.44-1.021l.004-.011 3.448-8.164zm42 0c.584-1.384 2.576-1.384 3.16 0l3.448 8.162c.246.582.804.98 1.444 1.032l8.952.706c1.516.12 2.132 1.982.976 2.958l-6.82 5.752a1.666 1.666 0 0 0-.55 1.682l-.002-.011 2.084 8.6c.352 1.456-1.258 2.608-2.556 1.828l-7.664-4.61a1.734 1.734 0 0 0-1.792.004l.008-.004-7.664 4.61c-1.3.78-2.908-.372-2.556-1.828l2.084-8.6a1.665 1.665 0 0 0-.547-1.668l-.003-.002-6.822-5.75c-1.158-.976-.542-2.84.974-2.96l8.952-.704a1.714 1.714 0 0 0 1.44-1.021l.004-.011 3.45-8.164zm42 0c.584-1.384 2.576-1.384 3.16 0l3.448 8.162c.248.582.804.98 1.444 1.032l8.952.706c1.516.12 2.132 1.982.976 2.958l-6.82 5.752a1.666 1.666 0 0 0-.55 1.682l-.002-.011 2.084 8.6c.352 1.456-1.258 2.608-2.556 1.828l-7.664-4.61a1.734 1.734 0 0 0-1.792.004l.008-.004-7.664 4.61c-1.3.78-2.908-.372-2.556-1.828l2.084-8.6a1.666 1.666 0 0 0-.55-1.668l-.003-.002-6.82-5.75c-1.156-.976-.54-2.84.976-2.96l8.952-.704a1.714 1.714 0 0 0 1.44-1.021l.004-.011 3.448-8.164zm42 0c.584-1.384 2.576-1.384 3.16 0l3.448 8.162c.248.582.804.98 1.444 1.032l8.952.706c1.516.12 2.132 1.982.976 2.958l-6.82 5.752a1.666 1.666 0 0 0-.55 1.682l-.002-.011 2.084 8.6c.352 1.456-1.258 2.608-2.556 1.828l-7.664-4.61a1.734 1.734 0 0 0-1.792.004l.008-.004-7.664 4.61c-1.3.78-2.908-.372-2.556-1.828l2.084-8.6a1.666 1.666 0 0 0-.55-1.668l-.003-.002-6.82-5.75c-1.156-.976-.54-2.84.976-2.96l8.952-.704a1.714 1.714 0 0 0 1.44-1.021l.004-.011 3.448-8.164z"/></symbol></defs></svg>